<svg width="33" height="34" fill="none" xmlns="http://www.w3.org/2000/svg"><path fill-rule="evenodd" clip-rule="evenodd" d="M31 17.5C31 26.06 24.284 33 16 33 7.716 33 1 26.06 1 17.5 1 8.94 7.716 2 16 2c8.284 0 15 6.94 15 15.5" fill="#DAF4AE"/><path fill-rule="evenodd" clip-rule="evenodd" d="M16.12 2c-.72 0-1.427.056-2.12.16 7.213 1.072 12.759 7.53 12.759 15.34S21.213 31.768 14 32.84c.693.104 1.4.16 2.12.16C24.339 33 31 26.06 31 17.5 31 8.94 24.338 2 16.12 2" fill="#AFD371"/><mask id="a" maskUnits="userSpaceOnUse" x="0" y="0" width="33" height="34"><path fill-rule="evenodd" clip-rule="evenodd" d="M0 .369h32.642V34H0V.369z" fill="#fff"/></mask><g mask="url(#a)"><path fill-rule="evenodd" clip-rule="evenodd" d="M16.32 3.018c-7.58 0-13.749 6.355-13.749 14.166 0 7.812 6.168 14.167 13.75 14.167 7.581 0 13.75-6.355 13.75-14.166 0-7.812-6.169-14.167-13.75-14.167m0 30.982C7.32 34 0 26.456 0 17.184 0 7.912 7.322.37 16.32.37c9 0 16.322 7.543 16.322 16.816C32.642 26.456 25.32 34 16.321 34" fill="#4C4372"/></g></svg>