<svg width="20" height="20" fill="none" xmlns="http://www.w3.org/2000/svg"><path d="M14.309 16.059c.372-.373.802-.559 1.289-.559.487 0 .902.186 1.246.559.372.372.558.802.558 1.289 0 .487-.186.916-.558 1.289-.344.343-.76.515-1.246.515a1.85 1.85 0 01-1.29-.515c-.372-.373-.558-.802-.558-1.29 0-.486.186-.916.559-1.288zM.902.848H3.91l.86 1.804h13.578c.258 0 .472.1.644.301a.874.874 0 01.258.645c0 .028-.043.172-.129.43l-3.265 5.929c-.344.63-.874.945-1.59.945H7.434l-.817 1.504-.043.13c0 .142.072.214.215.214h10.613v1.848h-11c-.487 0-.916-.187-1.289-.559a1.844 1.844 0 01-.515-1.289 1.9 1.9 0 01.215-.86l1.246-2.277-3.309-6.96H.902V.847zm4.211 15.21c.373-.372.802-.558 1.29-.558.486 0 .916.186 1.288.559.373.372.559.802.559 1.289 0 .487-.186.916-.559 1.289a1.844 1.844 0 01-1.289.515c-.487 0-.916-.172-1.289-.515a1.844 1.844 0 01-.515-1.29c0-.486.172-.916.515-1.288z"/></svg>