<svg width="26" height="22" fill="none" xmlns="http://www.w3.org/2000/svg"><g clip-path="url(#clip0)"><mask id="a" fill="#fff"><path d="M16 8V4a4 4 0 00-4-4H4a4 4 0 00-4 4v7a4 4 0 004 4h7.05"/></mask><path d="M16 8V4a4 4 0 00-4-4H4a4 4 0 00-4 4v7a4 4 0 004 4h7.05" fill="#fff"/><path d="M17.5 8V4h-3v4h3zM12-1.5H4v3h8v-3zM-1.5 4v7h3V4h-3zM4 16.5h7.05v-3H4v3zM-1.5 11A5.5 5.5 0 004 16.5v-3A2.5 2.5 0 011.5 11h-3zM4-1.5A5.5 5.5 0 00-1.5 4h3A2.5 2.5 0 014 1.5v-3zM17.5 4A5.5 5.5 0 0012-1.5v3A2.5 2.5 0 0114.5 4h3z" fill="#4355F9" mask="url(#a)"/><mask id="b" fill="#fff"><path d="M19 9V7a4 4 0 00-4-4H7a4 4 0 00-4 4v7a4 4 0 004 4h2.682"/></mask><path d="M19 9V7a4 4 0 00-4-4H7a4 4 0 00-4 4v7a4 4 0 004 4h2.682" fill="#fff"/><path d="M20.5 9V7h-3v2h3zM15 1.5H7v3h8v-3zM1.5 7v7h3V7h-3zM7 19.5h2.682v-3H7v3zM1.5 14A5.5 5.5 0 007 19.5v-3A2.5 2.5 0 014.5 14h-3zM7 1.5A5.5 5.5 0 001.5 7h3A2.5 2.5 0 017 4.5v-3zM20.5 7A5.5 5.5 0 0015 1.5v3A2.5 2.5 0 0117.5 7h3z" fill="#4355F9" mask="url(#b)"/><path d="M23.813 10.688l-1.22 1.218-2.5-2.5 1.22-1.219A.636.636 0 0121.78 8c.188 0 .344.063.469.188l1.563 1.562a.636.636 0 01.187.469.636.636 0 01-.188.469zM12 17.5l7.375-7.375 2.5 2.5L14.5 20H12v-2.5z" fill="#4355F9"/></g><defs><clipPath id="clip0"><path fill="#fff" d="M0 0h26v22H0z"/></clipPath></defs></svg>