<svg width="26" height="22" viewBox="0 0 26 22" fill="none" xmlns="http://www.w3.org/2000/svg">
<g clip-path="url(#clip0)">
<mask id="path-2-inside-1" fill="white">
<path d="M16 8V4C16 1.79086 14.2091 0 12 0L4 0C1.79086 0 0 1.79086 0 4L0 11C0 13.2091 1.79086 15 4 15H11.05"/>
</mask>
<path d="M16 8V4C16 1.79086 14.2091 0 12 0L4 0C1.79086 0 0 1.79086 0 4L0 11C0 13.2091 1.79086 15 4 15H11.05" fill="white"/>
<path d="M17.5 8V4L14.5 4L14.5 8H17.5ZM12 -1.5L4 -1.5V1.5L12 1.5V-1.5ZM-1.5 4L-1.5 11L1.5 11L1.5 4L-1.5 4ZM4 16.5L11.05 16.5V13.5H4L4 16.5ZM-1.5 11C-1.5 14.0376 0.962433 16.5 4 16.5L4 13.5C2.61929 13.5 1.5 12.3807 1.5 11L-1.5 11ZM4 -1.5C0.962434 -1.5 -1.5 0.962434 -1.5 4L1.5 4C1.5 2.61929 2.61929 1.5 4 1.5V-1.5ZM17.5 4C17.5 0.962434 15.0376 -1.5 12 -1.5V1.5C13.3807 1.5 14.5 2.61929 14.5 4L17.5 4Z" fill="#4355F9" mask="url(#path-2-inside-1)"/>
<mask id="path-4-inside-2" fill="white">
<path d="M19 9L19 7C19 4.79086 17.2091 3 15 3L7 3C4.79086 3 3 4.79086 3 7L3 14C3 16.2091 4.79086 18 7 18H9.68182"/>
</mask>
<path d="M19 9L19 7C19 4.79086 17.2091 3 15 3L7 3C4.79086 3 3 4.79086 3 7L3 14C3 16.2091 4.79086 18 7 18H9.68182" fill="white"/>
<path d="M20.5 9V7H17.5V9H20.5ZM15 1.5L7 1.5V4.5L15 4.5V1.5ZM1.5 7L1.5 14L4.5 14L4.5 7L1.5 7ZM7 19.5L9.68182 19.5L9.68182 16.5H7L7 19.5ZM1.5 14C1.5 17.0376 3.96244 19.5 7 19.5L7 16.5C5.61929 16.5 4.5 15.3807 4.5 14L1.5 14ZM7 1.5C3.96243 1.5 1.5 3.96243 1.5 7L4.5 7C4.5 5.61929 5.61929 4.5 7 4.5V1.5ZM20.5 7C20.5 3.96243 18.0376 1.5 15 1.5V4.5C16.3807 4.5 17.5 5.61929 17.5 7H20.5Z" fill="#4355F9" mask="url(#path-4-inside-2)"/>
<path d="M23.8125 10.6875L22.5938 11.9062L20.0938 9.40625L21.3125 8.1875C21.4375 8.0625 21.5938 8 21.7812 8C21.9688 8 22.125 8.0625 22.25 8.1875L23.8125 9.75C23.9375 9.875 24 10.0312 24 10.2188C24 10.4062 23.9375 10.5625 23.8125 10.6875ZM12 17.5L19.375 10.125L21.875 12.625L14.5 20H12V17.5Z" fill="#4355F9"/>
</g>
<defs>
<clipPath id="clip0">
<rect width="26" height="22" fill="white"/>
</clipPath>
</defs>
</svg>
