<svg width="18" height="16" fill="none" xmlns="http://www.w3.org/2000/svg"><path d="M1.24 7.997a.82.82 0 01.263-.606l5.493-5.485c.193-.184.387-.263.598-.263.448 0 .79.325.79.773a.76.76 0 01-.228.563L6.293 4.877 3.63 7.312l1.977-.124h10.371c.466 0 .8.334.8.81a.77.77 0 01-.8.799H5.609L3.62 8.674l2.672 2.434 1.863 1.899a.8.8 0 01.229.562c0 .449-.343.774-.791.774-.211 0-.396-.08-.58-.246l-5.51-5.502a.815.815 0 01-.264-.598z" fill="#fff"/><path d="M1.503 7.39l.53.531-.007.007-.007.006-.516-.543zm5.493-5.484l-.53-.53.006-.006.006-.006.518.542zm1.16 1.073l-.535-.526.01-.01.011-.01.514.546zM6.293 4.877l.535.525-.014.015-.015.014-.506-.554zM3.63 7.312l.046.748-2.12.132 1.568-1.434.506.554zm1.977-.124l-.046-.748.023-.002h.023v.75zm0 1.609v.75h-.023l-.023-.002.046-.748zm-1.986-.123l-.505.554-1.575-1.434 2.126.131-.046.749zm2.672 2.434l.505-.554.016.014.014.015-.535.525zm1.863 1.899l-.53.53-.005-.005.535-.525zm-1.142 1.09l-.504.556-.013-.013-.013-.013.53-.53zM1.503 8.595l.516-.544.007.006.007.007-.53.53zM.489 7.997c0-.435.173-.842.497-1.15L2.02 7.934a.102.102 0 00-.025.033.073.073 0 00-.005.03H.49zM.973 6.86l5.493-5.485 1.06 1.062-5.493 5.484L.973 6.86zm5.505-5.496c.31-.297.683-.471 1.116-.471v1.5h-.007a.28.28 0 00-.073.056L6.478 1.364zM7.594.893c.84 0 1.54.638 1.54 1.523h-1.5a.085.085 0 00-.001-.02v.001l.002.003c.002.001.002 0-.003-.002a.104.104 0 00-.038-.005v-1.5zm1.54 1.523c0 .398-.144.808-.464 1.109L7.642 2.432a.063.063 0 00-.009.01l-.002.005a.09.09 0 00.004-.031h1.5zm-.442 1.088L6.828 5.402l-1.07-1.05L7.62 2.453l1.07 1.05zM6.799 5.43L4.136 7.865 3.124 6.758l2.663-2.435L6.799 5.43zM3.583 6.563l1.978-.123.093 1.497-1.978.123-.093-1.497zm2.024-.125h10.371v1.5H5.609v-1.5zm10.371 0c.886 0 1.55.676 1.55 1.56h-1.5a.147.147 0 00-.007-.053c-.002-.005-.003-.005 0-.002.002.003.004.003 0 .001a.12.12 0 00-.043-.006v-1.5zm1.55 1.56c0 .88-.67 1.549-1.55 1.549v-1.5c.027 0 .04-.005.044-.006.004-.002.003-.002 0 0-.002.003-.001.004 0 0a.124.124 0 00.006-.044h1.5zm-1.55 1.549H5.609v-1.5h10.37v1.5zM5.562 9.545l-1.986-.123.092-1.497 1.987.123-.093 1.497zM4.126 8.12l2.672 2.435-1.01 1.109-2.672-2.435 1.01-1.109zm2.702 2.464l1.864 1.899-1.071 1.05-1.863-1.898 1.07-1.051zm1.859 1.893c.281.282.448.675.448 1.093h-1.5a.063.063 0 00-.005-.024l-.004-.008 1.06-1.06zm.448 1.093c0 .885-.701 1.524-1.541 1.524v-1.5c.02 0 .033-.004.038-.006.005-.002.005-.003.003-.002a.018.018 0 00-.002.004v-.003a.054.054 0 00.002-.017h1.5zm-1.541 1.524c-.432 0-.79-.174-1.084-.44l1.007-1.113c.044.04.067.05.07.052.002.001.002 0 0 0h.007v1.5zm-1.11-.466L.973 9.125l1.06-1.061 5.51 5.502-1.06 1.061zM.986 9.138a1.564 1.564 0 01-.497-1.14h1.5c0 .008.002.014.004.019a.11.11 0 00.026.034L.986 9.138z" fill="#fff"/></svg>