<svg width="17" height="19" fill="none" xmlns="http://www.w3.org/2000/svg"><path clip-rule="evenodd" d="M13.75 12.89c.745 0 1.375.266 1.89.795.516.53.774 1.153.774 1.87 0 .744-.265 1.382-.795 1.912s-1.153.795-1.869.795-1.34-.265-1.87-.795a2.607 2.607 0 01-.794-1.912c0-.287.014-.487.043-.602L4.64 11.172a2.75 2.75 0 01-1.891.73c-.745 0-1.39-.272-1.934-.816C.272 10.542 0 9.897 0 9.152c0-.744.272-1.389.816-1.933.545-.545 1.19-.817 1.934-.817a2.75 2.75 0 011.89.73l6.446-3.737A3.618 3.618 0 0111 2.75c0-.745.272-1.39.816-1.934C12.361.272 13.006 0 13.75 0c.745 0 1.39.272 1.934.816.544.545.816 1.19.816 1.934 0 .745-.272 1.39-.816 1.934-.545.544-1.19.816-1.934.816-.688 0-1.318-.258-1.89-.773l-6.446 3.78c.057.287.086.502.086.645 0 .144-.029.358-.086.645l6.531 3.781a2.632 2.632 0 011.805-.687z"/></svg>