<svg width="15" height="10" fill="none" xmlns="http://www.w3.org/2000/svg"><path d="M9.887 5.283c1.096 0 2.036-.983 2.036-2.25 0-1.252-.946-2.192-2.036-2.192-1.096 0-2.04.962-2.04 2.202 0 1.257.94 2.24 2.04 2.24zm-5.86.118c.951 0 1.773-.859 1.773-1.965 0-1.09-.822-1.902-1.773-1.902-.95 0-1.777.833-1.777 1.912 0 1.096.821 1.955 1.777 1.955zm-2.82 4.593h3.84c-.536-.768.092-2.31 1.204-3.17-.564-.375-1.29-.65-2.229-.65-2.283 0-3.728 1.687-3.728 3.084 0 .472.253.736.914.736zm5.49 0h6.37c.81 0 1.096-.237 1.096-.688 0-1.31-1.644-3.115-4.281-3.115-2.632 0-4.28 1.805-4.28 3.115 0 .451.284.688 1.095.688z" fill="#9B9B9B"/></svg>