<svg width="10" height="10" fill="none" xmlns="http://www.w3.org/2000/svg"><path opacity=".7" fill-rule="evenodd" clip-rule="evenodd" d="M1.586 6.508c1.075-.438 2.105-.656 3.09-.656.984 0 2.01.214 3.076.642 1.066.429 1.6.99 1.6 1.682v1.176H0V8.176c0-.693.529-1.249 1.586-1.668zm4.73-2.516a2.238 2.238 0 01-1.64.684 2.237 2.237 0 01-1.64-.684 2.237 2.237 0 01-.684-1.64c0-.638.227-1.19.683-1.655A2.216 2.216 0 014.675 0c.639 0 1.186.232 1.641.697.456.465.684 1.017.684 1.655 0 .638-.228 1.184-.684 1.64z" fill="#4A4A4A"/></svg>