<svg xmlns="http://www.w3.org/2000/svg" width="15" height="10" fill="none" viewBox="0 0 15 10"><path fill="#9B9B9B" d="M9.88721 5.2832C10.9829 5.2832 11.9229 4.30029 11.9229 3.03271C11.9229 1.78125 10.9775 0.841309 9.88721 0.841309C8.7915 0.841309 7.84619 1.80273 7.84619 3.04346C7.84619 4.30029 8.78613 5.2832 9.88721 5.2832ZM4.02734 5.40137C4.97803 5.40137 5.7998 4.54199 5.7998 3.43555C5.7998 2.34521 4.97803 1.53418 4.02734 1.53418C3.07666 1.53418 2.24951 2.3667 2.24951 3.44629C2.24951 4.54199 3.07129 5.40137 4.02734 5.40137ZM1.20752 9.99365H5.04785C4.51074 9.22559 5.13916 7.68408 6.25098 6.82471C5.68701 6.44873 4.96191 6.1748 4.02197 6.1748C1.73926 6.1748 0.294434 7.86133 0.294434 9.25781C0.294434 9.73047 0.546875 9.99365 1.20752 9.99365ZM6.69678 9.99365H13.0669C13.8779 9.99365 14.1626 9.75732 14.1626 9.30615C14.1626 7.99561 12.519 6.19092 9.88184 6.19092C7.25 6.19092 5.60107 7.99561 5.60107 9.30615C5.60107 9.75732 5.88574 9.99365 6.69678 9.99365Z"/></svg>