<svg xmlns="http://www.w3.org/2000/svg" width="10" height="10" fill="none" viewBox="0 0 10 10"><path fill="#4A4A4A" fill-rule="evenodd" d="M1.58594 6.50781C2.66146 6.07031 3.6914 5.85156 4.67578 5.85156C5.66016 5.85156 6.68554 6.06575 7.75195 6.49414C8.81837 6.92253 9.35156 7.48307 9.35156 8.17578V9.35156H0V8.17578C0 7.48307 0.528641 6.92709 1.58594 6.50781ZM6.31641 3.99219C5.86067 4.44792 5.31381 4.67578 4.67578 4.67578C4.03776 4.67578 3.49089 4.44792 3.03516 3.99219C2.57942 3.53646 2.35156 2.98959 2.35156 2.35156C2.35156 1.71354 2.57942 1.16211 3.03516 0.697266C3.49089 0.23242 4.03776 0 4.67578 0C5.31381 0 5.86067 0.23242 6.31641 0.697266C6.77214 1.16211 7 1.71354 7 2.35156C7 2.98959 6.77214 3.53646 6.31641 3.99219Z" clip-rule="evenodd" opacity=".7"/></svg>