<svg xmlns="http://www.w3.org/2000/svg" width="33" height="34" fill="none" viewBox="0 0 33 34"><path fill="#DAF4AE" fill-rule="evenodd" d="M31 17.5C31 26.0601 24.2843 33 15.9998 33C7.71574 33 1 26.0601 1 17.5C1 8.93994 7.71574 2 15.9998 2C24.2843 2 31 8.93994 31 17.5" clip-rule="evenodd"/><path fill="#AFD371" fill-rule="evenodd" d="M16.1206 2C15.4004 2 14.693 2.05611 14 2.1595C21.2126 3.23222 26.7588 9.6898 26.7588 17.5002C26.7588 25.3102 21.2126 31.7678 14 32.8405C14.693 32.9439 15.4004 33 16.1206 33C24.3379 33 31 26.0604 31 17.5002C31 8.9396 24.3379 2 16.1206 2" clip-rule="evenodd"/><mask id="mask0" width="33" height="34" x="0" y="0" mask-type="alpha" maskUnits="userSpaceOnUse"><path fill="#fff" fill-rule="evenodd" d="M0 0.368652H32.6421V34H0V0.368652Z" clip-rule="evenodd"/></mask><g mask="url(#mask0)"><path fill="#4C4372" fill-rule="evenodd" d="M16.3209 3.018C8.73943 3.018 2.57143 9.37291 2.57143 17.1845C2.57143 24.9957 8.73943 31.3506 16.3209 31.3506C23.9023 31.3506 30.0707 24.9957 30.0707 17.1845C30.0707 9.37291 23.9023 3.018 16.3209 3.018M16.3209 34C7.32172 34 0 26.4564 0 17.1845C0 7.91224 7.32172 0.368652 16.3209 0.368652C25.3204 0.368652 32.6421 7.91224 32.6421 17.1845C32.6421 26.4564 25.3204 34 16.3209 34" clip-rule="evenodd"/></g></svg>