<svg xmlns="http://www.w3.org/2000/svg" width="694" height="694" fill="none" viewBox="0 0 694 694"><path stroke="#fff" stroke-dasharray="2 8" stroke-width="1.5" d="M347 577C474.025 577 577 474.025 577 347C577 219.975 474.025 117 347 117C219.975 117 117 219.975 117 347C117 474.025 219.975 577 347 577Z" opacity=".4"/><path stroke="#fff" stroke-width="1.5" d="M347 654C516.551 654 654 516.551 654 347C654 177.449 516.551 40 347 40C177.449 40 40 177.449 40 347C40 516.551 177.449 654 347 654Z" opacity=".12"/><path fill="url(#paint0_radial)" fill-opacity=".8" d="M347 694C538.643 694 694 538.643 694 347C694 155.357 538.643 0 347 0C155.357 0 0 155.357 0 347C0 538.643 155.357 694 347 694Z" opacity=".8"/><defs><radialGradient id="paint0_radial" cx="0" cy="0" r="1" gradientTransform="translate(347 347) rotate(90) scale(309.994)" gradientUnits="userSpaceOnUse"><stop stop-color="#fff"/><stop offset="1" stop-color="#fff" stop-opacity=".01"/></radialGradient></defs></svg>